<svg xmlns="http://www.w3.org/2000/svg" width="522" height="384" viewBox="0 0 522 384" fill="none">
<path fill-rule="evenodd" clip-rule="evenodd" 
d="M521.35 0C399.407 19.4012 280.024 52.5283 176.912 102.985C128.091 126.85 83.8441 155.115 47.8031 187.751C28.8776 204.394 11.7831 222.924 3.78625 243.916C-16.873 298.146 50.4583 323.878 122.026 336.665C141.303 344.426 161.812 350.85 181.724 356.591C249.967 376.32 324.465 383.951 397.084 383.987C439.102 384.212 480.522 381.579 521.35 376.723V371.323V368.207V362.666C453.098 363.159 380.943 362.867 313.638 352.024C382.66 353.336 452.217 351.103 521.35 346.502V335.98C439.903 340.712 344.739 343.725 259.13 340.409C248.156 337.419 237.396 334.039 226.894 330.22C145.865 301.084 108.096 234.179 152.103 176.747C191.613 124.424 276.674 92.018 350.926 69.8467C405.545 53.214 462.916 41.1096 521.35 32.3742V22.6425V21.4281V19.1617V11.0545V10.8549V9.58607V0ZM48.9552 204.39C40.555 212.814 33.1399 221.663 27.2815 231.04C0.0287778 273.653 26.9214 300.918 83.2411 317.731C76.0631 313.399 69.3605 308.729 63.2815 303.667C22.5762 270.02 24.8312 235.937 48.9552 204.39ZM164.205 342.837C261.513 375.81 384.034 380.471 485.035 371.848C486.684 371.71 488.331 371.568 489.976 371.423C485.004 371.399 480.027 371.357 475.046 371.297C403.472 370.943 321.837 368.566 252.437 349.893C244.87 349.505 237.314 349.07 229.768 348.586C211.846 347.439 188.782 345.747 164.205 342.837ZM216.265 338.136C183.328 335.873 152.59 332.453 125.578 327.573C110.848 320.815 96.9751 313.234 84.1686 304.763C23.0146 264.049 51.6427 213.084 101.252 174.629C136.635 147.663 179.389 125.144 225 105.828C183.911 126.489 147.773 152.239 128.566 184.55C99.0196 234.254 126.725 291.73 185.996 324.216C195.581 329.408 205.704 334.026 216.265 338.136Z" 
fill="#021e2773"/>
</svg>